<?xml version="1.0" encoding="UTF-8" standalone="no"?>
<svg
   height="2430"
   viewBox="26.69 28.9 1173.9 1144.1"
   width="2500"
   version="1.1"
   id="svg2"
   sodipodi:docname="hero.svg"
   xml:space="preserve"
   inkscape:version="1.3 (0e150ed6c4, 2023-07-21)"
   xmlns:inkscape="http://www.inkscape.org/namespaces/inkscape"
   xmlns:sodipodi="http://sodipodi.sourceforge.net/DTD/sodipodi-0.dtd"
   xmlns:xlink="http://www.w3.org/1999/xlink"
   xmlns="http://www.w3.org/2000/svg"
   xmlns:svg="http://www.w3.org/2000/svg"><defs
     id="defs2"><linearGradient
       id="linearGradient1"
       inkscape:collect="always"><stop
         style="stop-color:#1c4472;stop-opacity:1;"
         offset="0"
         id="stop1" /><stop
         style="stop-color:#1c4472;stop-opacity:0.35686275;"
         offset="0.62594885"
         id="stop3" /><stop
         style="stop-color:#1c4472;stop-opacity:0;"
         offset="1"
         id="stop2" /></linearGradient><radialGradient
       inkscape:collect="always"
       xlink:href="#linearGradient1"
       id="radialGradient2"
       cx="613.64"
       cy="600.94999"
       fx="613.64"
       fy="600.94999"
       r="588.52881"
       gradientTransform="matrix(1,0,0,0.97199998,0,16.826614)"
       gradientUnits="userSpaceOnUse" /></defs><sodipodi:namedview
     id="namedview2"
     pagecolor="#505050"
     bordercolor="#eeeeee"
     borderopacity="1"
     inkscape:showpageshadow="0"
     inkscape:pageopacity="0"
     inkscape:pagecheckerboard="true"
     inkscape:deskcolor="#d1d1d1"
     inkscape:zoom="0.33900387"
     inkscape:cx="665.18415"
     inkscape:cy="1623.8753"
     inkscape:window-width="2560"
     inkscape:window-height="1371"
     inkscape:window-x="1920"
     inkscape:window-y="32"
     inkscape:window-maximized="1"
     inkscape:current-layer="svg2" /><rect
     style="fill:url(#radialGradient2);stroke-width:13.183;stroke-linecap:round;paint-order:markers stroke fill;opacity:0.17374599"
     id="rect1"
     width="1177.0576"
     height="1144.1"
     x="25.111193"
     y="28.9"
     rx="11.299753"
     ry="11.299753" /><path
     d="m 593.93786,204.45219 c -1.52718,0.0694 -7.28877,0.55534 -12.84211,0.97184 -69.4168,5.13684 -139.80545,30.82107 -197.49081,72.05464 -19.08963,13.6057 -34.15307,26.37839 -50.95193,43.17725 -96.55877,96.6282 -136.3346,234.90648 -106.1383,369.228 12.3562,55.11694 38.73457,110.58096 73.72065,155.14656 54.90869,70.04155 130.15651,119.3969 214.56734,140.77727 34.36132,8.74653 62.89163,12.28679 98.91895,12.28679 35.5414,0 61.71154,-3.19319 95.58694,-11.45379 48.66118,-11.93968 91.42193,-31.58464 134.18268,-61.50329 40.9559,-28.73855 79.06572,-69.0003 106.41595,-112.38579 35.26373,-56.08879 55.32518,-118.00857 60.25378,-185.96764 1.0413,-14.29985 0.4165,-49.70243 -1.1107,-64.27995 -3.0543,-28.94681 -10.82899,-67.12606 -15.34108,-75.10898 -1.80484,-3.12376 -6.87227,-7.14994 -10.62078,-8.46885 -1.31891,-0.4165 -4.23441,-0.76359 -6.59459,-0.76359 -10.41252,0 -19.15903,8.6771 -19.15903,18.88137 0,2.42959 1.11066,8.2606 2.70724,14.57753 13.74453,53.45094 14.85521,112.17755 3.12376,165.76732 -14.99403,68.65323 -48.45293,129.18468 -98.91891,178.8177 -23.53231,23.1158 -46.2316,40.19233 -75.59491,56.9912 -68.51439,39.2205 -153.68881,54.07569 -233.58755,40.74766 C 494.39416,943.88 441.7068,920.55596 391.65729,881.61313 368.125,863.28709 339.45585,833.09079 321.68515,807.82307 c -30.68223,-43.59376 -49.9801,-89.54768 -59.97613,-142.9292 -5.06741,-27.21139 -6.80284,-63.30813 -4.44266,-92.67145 3.60967,-44.56558 14.78577,-85.938 33.73656,-125.15849 8.74653,-18.25662 14.16103,-27.76672 24.64296,-43.52434 21.38039,-32.34823 49.70245,-62.61396 81.00943,-86.63217 36.72148,-28.25264 80.31523,-49.70243 124.3949,-61.22563 23.80997,-6.2475 42.83018,-9.37126 66.98722,-11.10668 87.39576,-6.24752 172.36192,18.88137 241.57049,71.56872 5.13684,3.88735 10.55134,8.12178 12.00911,9.44069 l 2.63783,2.29076 -1.04125,2.91551 c -5.34509,14.99402 -1.38833,33.66715 9.85719,46.7175 5.76159,6.66402 16.17411,12.91152 24.99005,14.99403 6.03924,1.45775 16.52117,1.45775 22.62985,0 15.47995,-3.67909 29.91864,-16.9377 34.50015,-31.65407 5.13684,-16.45177 2.15192,-32.69531 -8.39942,-45.8845 -11.66204,-14.57753 -31.72348,-21.10271 -50.25776,-16.24353 l -4.02616,1.04125 -5.69218,-4.72035 c -23.11581,-19.36728 -51.09078,-37.27682 -80.5235,-51.50726 -47.75877,-23.1158 -95.72577,-35.54141 -150.35681,-38.87342 -10.48193,-0.62475 -35.26374,-0.76358 -41.99716,-0.20825 z"
     id="path1"
     style="fill:#1c426d;fill-opacity:1;stroke-width:0.694168" /><g
     transform="matrix(3.0101768,0,0,-3.0101768,145.88562,1137.4985)"
     id="g10"><g
       transform="translate(178.06,235.01)"
       id="g4"
       style="fill:#173960;fill-opacity:1"><path
         d="M 0,0 -22.669,-39.264 -45.338,0 h -75.491 L -22.669,-170.02 75.491,0 Z"
         fill="#41b883"
         id="path2"
         style="fill:#1c4472;fill-opacity:1" /></g><g
       transform="translate(178.06,235.01)"
       id="g8"
       style="fill:#2a5f9c;fill-opacity:1"><path
         d="M 0,0 -22.669,-39.264 -45.338,0 H -81.565 L -22.669,-102.01 36.227,0 Z"
         fill="#34495e"
         id="path6"
         style="fill:#2a5f9c;fill-opacity:1" /></g></g></svg>
