<?xml version="1.0" encoding="UTF-8" standalone="no"?>
<svg
   height="2430"
   viewBox="26.69 28.9 1173.9 1144.1"
   width="2500"
   version="1.1"
   id="svg2"
   sodipodi:docname="vue-apollo.svg"
   xml:space="preserve"
   inkscape:version="1.3 (0e150ed6c4, 2023-07-21)"
   xmlns:inkscape="http://www.inkscape.org/namespaces/inkscape"
   xmlns:sodipodi="http://sodipodi.sourceforge.net/DTD/sodipodi-0.dtd"
   xmlns="http://www.w3.org/2000/svg"
   xmlns:svg="http://www.w3.org/2000/svg"><defs
     id="defs2" /><sodipodi:namedview
     id="namedview2"
     pagecolor="#505050"
     bordercolor="#eeeeee"
     borderopacity="1"
     inkscape:showpageshadow="0"
     inkscape:pageopacity="0"
     inkscape:pagecheckerboard="true"
     inkscape:deskcolor="#d1d1d1"
     inkscape:zoom="0.47942387"
     inkscape:cx="870.83691"
     inkscape:cy="1406.897"
     inkscape:window-width="2560"
     inkscape:window-height="1371"
     inkscape:window-x="1920"
     inkscape:window-y="32"
     inkscape:window-maximized="1"
     inkscape:current-layer="g10" /><path
     d="m 585.25763,29.7 c -2.2,0.1 -10.5,0.8 -18.5,1.4 -100,7.4 -201.4,44.4 -284.5,103.8 -27.5,19.6 -49.2,38 -73.4,62.2 C 69.757632,336.3 12.457632,535.5 55.957632,729 c 17.8,79.4 55.799998,159.3 106.199998,223.5 79.1,100.9 187.5,172 309.1,202.8 49.5,12.6 90.6,17.7 142.5,17.7 51.2,0 88.9,-4.6 137.7,-16.5 70.1,-17.2 131.7,-45.5 193.3,-88.6 58.99997,-41.4 113.89997,-99.4 153.29997,-161.9 50.8,-80.8 79.7,-170 86.8,-267.9 1.5,-20.6 0.6,-71.6 -1.6,-92.6 -4.4,-41.7 -15.6,-96.7 -22.1,-108.2 -2.6,-4.5 -9.9,-10.3 -15.3,-12.2 -1.9,-0.6 -6.1,-1.1 -9.5,-1.1 -15,0 -27.6,12.5 -27.6,27.2 0,3.5 1.6,11.9 3.9,21 19.8,77 21.4,161.6 4.5,238.8 -21.6,98.9 -69.8,186.1 -142.49997,257.6 -33.9,33.3 -66.6,57.9 -108.9,82.1 -98.7,56.5 -221.4,77.9 -336.5,58.7 -87.4,-14.5 -163.3,-48.1 -235.4,-104.2 -33.9,-26.4 -75.2,-69.9 -100.8,-106.3 -44.2,-62.8 -72,-129 -86.4,-205.9 -7.299998,-39.2 -9.799998,-91.2 -6.4,-133.5 5.2,-64.2 21.3,-123.8 48.6,-180.3 12.6,-26.3 20.4,-40 35.5,-62.7 30.8,-46.6 71.6,-90.2 116.7,-124.8 52.9,-40.7 115.7,-71.6 179.2,-88.2 34.3,-9 61.7,-13.5 96.5,-16 125.9,-9 248.3,27.2 348,103.1 7.4,5.6 15.2,11.7 17.3,13.6 l 3.8,3.3 -1.5,4.2 c -7.7,21.6 -2,48.5 14.2,67.3 8.3,9.6 23.3,18.6 36,21.6 8.69997,2.1 23.79997,2.1 32.59997,0 22.3,-5.3 43.1,-24.4 49.7,-45.6 7.4,-23.7 3.1,-47.1 -12.1,-66.1 -16.8,-21 -45.7,-30.4 -72.39997,-23.4 l -5.8,1.5 -8.2,-6.8 c -33.3,-27.9 -73.6,-53.7 -116,-74.2 -68.8,-33.3 -137.9,-51.2 -216.6,-56 -15.1,-0.9 -50.8,-1.1 -60.5,-0.3 z"
     id="path1"
     style="fill:#1c426d;fill-opacity:1" /><g
     transform="matrix(4.3363805,0,0,-4.3363805,-60.194502,1373.8216)"
     id="g10"><g
       transform="translate(178.06,235.01)"
       id="g4"
       style="fill:#173960;fill-opacity:1"><path
         d="M 0,0 -22.669,-39.264 -45.338,0 h -75.491 L -22.669,-170.02 75.491,0 Z"
         fill="#41b883"
         id="path2"
         style="fill:#1c4472;fill-opacity:1" /></g><g
       transform="translate(178.06,235.01)"
       id="g8"
       style="fill:#2a5f9c;fill-opacity:1"><path
         d="M 0,0 -22.669,-39.264 -45.338,0 H -81.565 L -22.669,-102.01 36.227,0 Z"
         fill="#34495e"
         id="path6"
         style="fill:#2a5f9c;fill-opacity:1" /></g></g></svg>
